HIERARCHY
ROOT Hips
{
	OFFSET 0.00000 0.00000 0.00000
	CHANNELS 6 Xposition Yposition Zposition Yrotation Zrotation Xrotation 
	JOINT Lumbar
	{
		OFFSET 0 0 0
		CHANNELS 3 Zrotation Xrotation Yrotation
		JOINT Neck
		{
			OFFSET 0.00 0.2701 0.00
			CHANNELS 3 Zrotation Xrotation Yrotation
			End Site
			{
				OFFSET 0.00 0.1379 0.00
			}
		}
		JOINT RightShoulder
		{
			OFFSET 0.0119 0.2289 0.1181
			CHANNELS 3 Zrotation Xrotation Yrotation
			JOINT RightElbow
			{
				OFFSET 0.00 -0.1475 0.00
				CHANNELS 2 Zrotation Yrotation
				JOINT RightWrist
				{
					OFFSET 0.00 -0.1605 0.00
					CHANNELS 2 Zrotation Xrotation
					End Site
					{
						OFFSET 0.0040 -0.1068 0.0006
					}
				}
			}
		}
		JOINT LeftShoulder
		{
			OFFSET 0.0119 0.2289 -0.1181
			CHANNELS 3 Zrotation Xrotation Yrotation
			JOINT LeftElbow
			{
				OFFSET 0.00 -0.1475 0.00
				CHANNELS 2 Zrotation Yrotation
				JOINT LeftWrist
				{
					OFFSET 0.00 -0.1605 0.00
					CHANNELS 2 Zrotation Xrotation
					End Site
					{
						OFFSET 0.0040 -0.1068 -0.0006
					}
				}
			}
		}
	}
	JOINT RightHip
	{
		OFFSET 0.0316 -0.0424 0.0458
		CHANNELS 3 Zrotation Xrotation Yrotation
		JOINT RightKnee
		{
			OFFSET 0.00 -0.2438 0.00
			CHANNELS 1 Zrotation
			JOINT RightAnkle
			{
				OFFSET 0.00 -0.2449 0.00
				CHANNELS 3 Zrotation Xrotation Yrotation
				End Site
				{
					OFFSET 0.1237 -0.0542 0.0051
				}
			}
		}
	}
	JOINT LeftHip
	{
		OFFSET 0.0316 -0.0424 -0.0458
		CHANNELS 3 Zrotation Xrotation Yrotation
		JOINT LeftKnee
		{
			OFFSET 0.00 -0.2438 0.00
			CHANNELS 1 Zrotation
			JOINT LeftAnkle
			{
				OFFSET 0.00 -0.2449 0.00
				CHANNELS 3 Zrotation Xrotation Yrotation
				End Site
				{
					OFFSET 0.1237 -0.0542 -0.0051
				}
			}
		}
	}
}
MOTION
Frames: 14
Frame Time: 0.02
-8e-05 4e-05 -8e-05 177.97414 -46.24746 1.17757 57.55004 -0.14572 0.52669 -14.34733 -1.34224 -0.34374 169.88002 -81.65584 -23.55438 18.29519 93.29383 -1.37143 -4.96887 169.88322 80.22401 35.36854 15.3289 -95.60585 -4.8138 5.86843 49.9942 -3.9796 -9.41224 -18.94521 -8.65792 -5.45896 -3.68196 55.03598 2.97792 -1.62704 -24.14359 -9.53863 5.58861 3.80367
-4e-05 3e-05 -7e-05 177.98625 -46.22817 1.18092 57.54004 -0.14923 0.54067 -14.35074 -1.35075 -0.34349 169.88021 -81.66516 -23.5334 18.27598 93.30381 -1.38875 -4.97092 169.88336 80.2644 35.41413 15.26415 -95.61297 -4.82993 5.88011 49.98203 -3.95282 -9.23946 -18.94846 -8.67812 -5.46986 -3.6898 55.01716 3.08021 -1.13741 -24.14435 -9.48265 5.55282 3.77805
-0 3e-05 -6e-05 177.99835 -46.20891 1.18426 57.53007 -0.15273 0.55469 -14.35417 -1.35924 -0.34324 169.88041 -81.67453 -23.51237 18.25687 93.31375 -1.40602 -4.97299 169.88194 80.30495 35.45918 15.19879 -95.61985 -4.84588 5.8915 49.96986 -3.92611 -9.06718 -18.95171 -8.69827 -5.48073 -3.69763 54.99837 3.18225 -0.64906 -24.14512 -9.42682 5.51711 3.75249
3e-05 3e-05 -6e-05 178.01043 -46.18967 1.1876 57.5201 -0.15622 0.56863 -14.35757 -1.36773 -0.34299 169.8806 -81.68383 -23.49145 18.23772 93.32369 -1.42329 -4.97504 169.88334 80.34508 35.50532 15.13413 -95.62709 -4.86197 5.9032 49.95772 -3.89941 -8.89494 -18.95495 -8.71841 -5.4916 -3.70545 54.9796 3.28424 -0.16089 -24.14588 -9.37101 5.48143 3.72694
7e-05 3e-05 -5e-05 178.02252 -46.17042 1.19095 57.5101 -0.15972 0.5825 -14.36096 -1.37625 -0.34274 169.88079 -81.69307 -23.47059 18.21848 93.33369 -1.44057 -4.97706 169.88272 80.38541 35.55009 15.07032 -95.63415 -4.8782 5.91501 49.94558 -3.87265 -8.72221 -18.95821 -8.73859 -5.50248 -3.71329 54.96082 3.38646 0.32846 -24.14665 -9.31506 5.44566 3.70134
0.00011 2e-05 -4e-05 178.03463 -46.15113 1.19424 57.50018 -0.16323 0.59687 -14.36445 -1.38466 -0.34249 169.88098 -81.70271 -23.44918 18.19967 93.34351 -1.45782 -4.97923 169.8773 80.42671 35.59456 15.00169 -95.64041 -4.8935 5.92537 49.93336 -3.84604 -8.55089 -18.96144 -8.7587 -5.51333 -3.72109 54.94201 3.4881 0.81468 -24.14742 -9.25948 5.41009 3.67589
0.00015 2e-05 -4e-05 178.04669 -46.13195 1.19767 57.49011 -0.16671 0.61017 -14.36774 -1.39328 -0.34224 169.88118 -81.7115 -23.42897 18.17994 93.35366 -1.47517 -4.98108 169.89247 80.46475 35.645 14.94295 -95.64954 -4.91092 5.93932 49.92132 -3.81916 -8.37694 -18.96471 -8.77893 -5.52424 -3.72896 54.92329 3.5908 1.30667 -24.14818 -9.20322 5.37417 3.65015
0.00019 2e-05 -3e-05 178.0588 -46.11266 1.20096 57.48019 -0.17022 0.62456 -14.37122 -1.40171 -0.34199 169.88134 -81.72111 -23.40755 18.16118 93.36352 -1.49232 -4.98325 169.8687 80.50808 35.68007 14.87491 -95.65368 -4.92588 5.94873 49.90911 -3.79252 -8.20538 -18.96795 -8.79905 -5.53509 -3.73676 54.90447 3.69252 1.79332 -24.14895 -9.14759 5.33858 3.62468
0.00022 1e-05 -2e-05 178.07095 -46.09324 1.20412 57.47038 -0.17378 0.63987 -14.37489 -1.40989 -0.34175 169.88159 -81.73159 -23.38503 18.14315 93.37297 -1.50967 -4.98574 169.87629 80.54887 35.73547 14.79601 -95.66099 -4.93983 5.95743 49.8967 -3.76622 -8.03679 -18.97115 -8.81901 -5.54588 -3.74449 54.88557 3.79308 2.27377 -24.14973 -9.09271 5.30335 3.5995
0.00026 1e-05 -1e-05 178.08284 -46.07458 1.20814 57.45975 -0.17709 0.64866 -14.37734 -1.41949 -0.34146 169.88172 -81.73671 -23.36997 18.11952 93.38463 -1.52719 -4.98618 169.94079 80.57724 35.79147 14.78109 -95.67794 -4.96559 5.98478 49.88544 -3.73809 -7.85125 -18.97456 -8.83984 -5.55704 -3.75265 54.86723 3.90043 2.79089 -24.15044 -9.03343 5.2659 3.57255
0.0003 1e-05 -1e-05 178.09527 -46.0543 1.21027 57.45097 -0.18089 0.67197 -14.38245 -1.4261 -0.34127 169.88188 -81.75337 -23.33847 18.10859 93.39171 -1.5435 -4.99105 169.73374 80.64904 35.77115 14.63036 -95.65676 -4.96262 5.96348 49.87176 -3.71374 -7.70143 -18.97752 -8.85884 -5.56743 -3.75992 54.84769 3.99339 3.22994 -24.1513 -8.98352 5.23321 3.5494
0.00034 -1e-05 -3e-05 178.10929 -46.0297 1.20787 57.44631 -0.18631 0.72932 -14.39455 -1.4245 -0.34134 169.88215 -81.80043 -23.26741 18.12535 93.38489 -1.56368 -5.00723 170.06404 80.69376 36.18997 14.11647 -95.68196 -4.91428 5.88797 49.85141 -3.7005 -7.65114 -18.97926 -8.87273 -5.57566 -3.76464 54.82496 4.04706 3.45855 -24.15247 -8.95864 5.2132 3.53641
0.00038 -2e-05 -5e-05 178.12387 -46.00343 1.20345 57.44375 -0.19216 0.80241 -14.4095 -1.41996 -0.3415 169.88132 -81.85954 -23.17908 18.15602 93.37344 -1.58141 -5.02803 169.91722 80.80498 36.43638 13.46912 -95.64518 -4.83302 5.75202 49.8286 -3.69093 -7.63662 -18.98054 -8.8848 -5.58313 -3.76849 54.80101 4.08625 3.60802 -24.1538 -8.94328 5.19803 3.52729
0.00042 -4e-05 -6e-05 178.13811 -45.97784 1.19957 57.4408 -0.19767 0.87198 -14.4232 -1.41673 -0.3416 169.88239 -81.91369 -23.0947 18.18519 93.3653 -1.59544 -5.04721 169.1086 80.98668 36.30686 12.87064 -95.53263 -4.74222 5.58793 49.80699 -3.67916 -7.60451 -18.98204 -8.89777 -5.59101 -3.77281 54.77759 4.13192 3.79127 -24.15512 -8.92397 5.18088 3.51658
